<?xml version="1.0" standalone="no"?><!DOCTYPE svg PUBLIC "-//W3C//DTD SVG 1.1//EN" "http://www.w3.org/Graphics/SVG/1.1/DTD/svg11.dtd"><svg t="1692172479115" class="icon" viewBox="0 0 1024 1024" version="1.1" xmlns="http://www.w3.org/2000/svg" p-id="30610" xmlns:xlink="http://www.w3.org/1999/xlink" width="128" height="128"><path d="M21.333333 691.2v-85.333333c0-70.4 57.6-128 128-128h153.6l172.8-172.8V149.333333c0-70.4 57.6-128 128-128h85.333334c70.4 0 128 57.6 128 128v53.333334H874.666667c70.4 0 128 57.6 128 128v85.333333c0 70.4-57.6 128-128 128h-153.6l-172.8 172.8V874.666667c0 70.4-57.6 128-128 128h-85.333334c-70.4 0-128-57.6-128-128v-53.333334H149.333333c-70.4 0-128-59.733333-128-130.133333z m85.333334-85.333333v85.333333c0 23.466667 19.2 42.666667 42.666666 42.666667h96c23.466667 0 42.666667 19.2 42.666667 42.666666V874.666667c0 23.466667 19.2 42.666667 42.666667 42.666666h85.333333c23.466667 0 42.666667-19.2 42.666667-42.666666v-172.8c0-10.666667 4.266667-21.333333 12.8-29.866667l198.4-198.4c8.533333-8.533333 19.2-12.8 29.866666-12.8H874.666667c23.466667 0 42.666667-19.2 42.666666-42.666667v-85.333333c0-23.466667-19.2-42.666667-42.666666-42.666667h-96c-23.466667 0-42.666667-19.2-42.666667-42.666666V149.333333c0-23.466667-19.2-42.666667-42.666667-42.666666h-85.333333c-23.466667 0-42.666667 19.2-42.666667 42.666666v172.8c0 10.666667-4.266667 21.333333-12.8 29.866667l-198.4 198.4c-8.533333 8.533333-19.2 12.8-29.866666 12.8H149.333333c-23.466667 0-42.666667 19.2-42.666666 42.666667z" fill="#2F3CF4" p-id="30611"></path></svg>