<?xml version="1.0" standalone="no"?><!DOCTYPE svg PUBLIC "-//W3C//DTD SVG 1.1//EN" "http://www.w3.org/Graphics/SVG/1.1/DTD/svg11.dtd"><svg t="1692168688991" class="icon" viewBox="0 0 1556 1024" version="1.1" xmlns="http://www.w3.org/2000/svg" p-id="23791" xmlns:xlink="http://www.w3.org/1999/xlink" width="194.5" height="128"><path d="M618.530338 293.484042a34.994747 34.994747 0 0 1-32.090183-20.996849c-0.857371-1.907214-4.251862-7.576363-6.998949-12.143177-18.337247-30.620404-56.516517-94.363336-41.993697-165.770117a34.889763 34.889763 0 0 1 0.892366-3.499475c9.886016-31.617754 24.076386-41.153823 48.467725-48.537714q1.102335-0.33245 2.222166-0.594911A271.996672 271.996672 0 0 1 650.480542 34.995342C833.205614 34.995342 1007.899392 206.574587 1015.335776 213.870992a34.994747 34.994747 0 0 1-22.746586 59.771028L620.402557 293.431549z" fill="#FCCE0B" p-id="23792"></path><path d="M650.480542 69.990089c170.389424 0 340.183937 168.709676 340.183937 168.709676l-372.116643 19.789529c-8.573713-19.789529-61.433279-85.07223-46.840469-157.02143 6.159075-19.684545 10.830874-21.136827 25.213715-25.493673A235.934585 235.934585 0 0 1 650.480542 69.990089m0-69.989494a307.043911 307.043911 0 0 0-69.394583 7.803829q-2.239664 0.524921-4.444333 1.189821C565.933233 12.248756 549.748163 17.130524 534.385469 30.970946c-17.234913 15.537668-24.811276 34.679794-29.483075 49.622552a69.989494 69.989494 0 0 0-1.749737 6.998949C485.935241 172.24474 528.821304 243.843993 549.468205 278.208834c1.889716 3.149527 4.426836 7.401389 5.389191 9.168624a69.989494 69.989494 0 0 0 63.707937 41.048839q1.854722 0 3.744438-0.104985l372.116643-19.789529A69.989494 69.989494 0 0 0 1040.007072 188.972229a833.049955 833.049955 0 0 0-116.899952-93.06853c-41.031341-27.155924-82.01019-48.992646-121.764223-64.740282C748.938263 10.499019 698.19588 0.000595 650.480542 0.000595z" fill="#434E52" p-id="23793"></path><path d="M670.340061 988.952148a272.084159 272.084159 0 0 1-61.468273-6.893965q-1.119832-0.262461-2.222166-0.594911c-24.391339-7.383892-38.581709-16.91996-48.467725-48.537714a34.994747 34.994747 0 0 1-0.892366-3.499474c-14.487825-71.406781 23.691444-135.132216 41.993696-165.770118 2.747088-4.566814 6.141578-10.270958 6.99895-12.160674a34.994747 34.994747 0 0 1 32.090183-20.996848h1.872219l372.116643 19.789529a34.994747 34.994747 0 0 1 22.746586 59.771028c-7.26141 7.313902-182.042674 178.893147-364.767747 178.893147z" fill="#FCCE0B" p-id="23794"></path><path d="M638.407355 765.458196l372.116643 19.789529s-169.724524 168.709676-340.183937 168.709676a235.934585 235.934585 0 0 1-53.55946-5.984102c-14.382841-4.356846-19.05464-5.791631-25.213715-25.493673-14.59281-71.9492 38.266756-137.249398 46.840469-157.02143m0-69.989494a69.989494 69.989494 0 0 0-63.707938 41.048838c-0.962356 1.749737-3.499475 6.019097-5.389191 9.168624-20.611906 34.399836-63.497969 105.999089-46.315547 190.721372a69.989494 69.989494 0 0 0 1.749737 6.998949c4.671799 14.942757 12.248161 34.084884 29.483074 49.622551 15.345197 13.822925 31.495272 18.739687 42.256157 21.976702q2.204669 0.6649 4.444333 1.189821a307.043911 307.043911 0 0 0 69.394584 7.803829c47.732835 0 98.492716-10.498424 150.844857-31.285304 39.77153-15.747636 80.732882-37.531866 121.764223-64.740282a833.049955 833.049955 0 0 0 116.899953-93.06853 69.989494 69.989494 0 0 0-45.615653-119.542057L642.204285 695.573686c-1.242314 0-2.502124-0.104984-3.744438-0.104984z" fill="#434E52" p-id="23795"></path><path d="M887.657441 866.907968c-216.372521 0-404.889224-125.106221-519.339545-223.126508-23.446481 55.046737-79.54306 91.528761-128.448219 113.942897-58.528715 26.840971-116.340037 38.599206-126.191058 40.488922a140.976339 140.976339 0 0 1-31.495272 4.409338c-31.390288 0-41.731236-19.247111-44.723287-27.57586-11.46078-31.740236 19.859519-57.741333 36.744484-71.739232 42.50112-35.292202 64.110377-144.720777 69.132123-185.47216-6.841473-56.586506-30.987849-153.836908-69.132123-185.472159-16.832473-13.997899-48.152772-39.981499-36.744484-71.739232 2.992051-8.293755 13.350496-27.575861 44.723287-27.575861a140.958841 140.958841 0 0 1 31.495272 4.409338c9.851021 1.889716 67.662344 13.647951 126.208555 40.488923 48.905159 22.414136 104.984241 58.896159 128.44822 113.960394 114.45032-97.985292 302.967023-223.126508 519.339544-223.126508 143.8984 0 284.454802 26.6485 395.755595 75.028738 55.431679 24.093883 102.604599 52.89456 140.223952 85.597151 40.016493 34.784779 68.239757 73.139021 83.794922 113.960394a34.994747 34.994747 0 0 1-7.943808 37.216914l-35.764631 35.764632 36.569511 36.56951a34.994747 34.994747 0 0 1 8.101284 36.744485c-15.135228 41.188817-43.078534 79.893008-83.042535 115.045231-37.514369 33.000047-84.722283 62.063184-140.311439 86.384533-111.598249 48.922656-252.662074 75.81612-397.400348 75.81612z" fill="#FCCE0B" p-id="23796"></path><path d="M887.657441 203.740013c290.228935 0 532.217611 108.308742 587.089375 252.067163l-60.505918 60.505918 61.345792 61.345792c-53.244508 144.843258-296.230534 254.254335-587.911752 254.254335-240.221442 0-447.250365-165.577646-542.698538-256.249036-0.297455 3.849422-0.454932 8.101284-0.454932 12.930559 0 132.332636-238.471704 175.498657-238.471704 175.498657a112.333138 112.333138 0 0 1-23.866417 3.586961c-14.102883 0-22.746586-6.561515 14.312851-37.37439C161.026512 676.641528 178.523885 517.922852 178.523885 517.922852l0.279958-0.157476-0.279958-0.157477s-17.497374-158.596194-82.027687-212.225643c-37.111929-30.812875-28.433232-37.37439-14.312851-37.37439a112.368133 112.368133 0 0 1 23.866417 3.586961s238.471704 43.166021 238.471704 175.498657c0 4.829275 0.174974 9.098634 0.454932 12.948056C440.424573 369.335156 647.453497 203.740013 887.657441 203.740013m0-69.989495c-117.232403 0-238.29673 34.697292-359.903477 103.12952a1130.330332 1130.330332 0 0 0-150.022481 101.869709A223.004026 223.004026 0 0 0 356.997096 314.690858c-25.756134-26.088584-60.278452-49.16762-102.622096-68.589704-60.050986-27.523369-119.612046-40.243959-133.17251-42.851068a174.168856 174.168856 0 0 0-39.10663-5.249212c-43.743434 0-68.799673 26.24606-77.653344 50.742383-5.249212 14.785281-10.603408 44.460826 13.997899 77.250905 7.751336 10.305953 18.302253 20.874367 33.245009 33.245009C63.04122 368.565272 80.03117 397.190975 94.116555 449.683095a596.205507 596.205507 0 0 1 13.822925 68.082281 594.105822 594.105822 0 0 1-14.277856 69.779526c-13.997899 51.477273-30.795377 79.648044-41.871215 88.834165-14.92526 12.38814-25.476176 22.956554-33.24501 33.24501-24.636302 32.790078-19.369593 62.483121-13.997899 77.250904 8.853671 24.496323 33.892413 50.742383 77.635847 50.742383a174.133862 174.133862 0 0 0 39.106629-5.249212c13.560465-2.659601 73.121524-15.310202 133.172511-42.851067C296.788633 770.129995 331.328449 747.138446 356.997096 720.892385a223.039021 223.039021 0 0 0 20.6469-24.058888 1130.330332 1130.330332 0 0 0 150.022481 101.869709c121.606746 68.432228 242.706069 103.12952 359.903477 103.129519a1163.820305 1163.820305 0 0 0 220.746865-20.629403c69.132123-13.385491 133.294992-32.91256 190.721372-58.038788 58.896159-25.773631 109.166114-56.778977 149.392575-92.176164 44.390837-39.03664 75.606151-82.517614 92.73608-129.235601a69.989494 69.989494 0 0 0-16.202568-73.646445l-11.845722-11.845722 11.023345-11.023346a69.989494 69.989494 0 0 0 15.905113-74.451324c-17.65485-46.263056-49.132625-89.236605-93.540959-127.888303-40.243959-34.994747-90.531411-65.75513-149.235099-91.266301-57.181417-24.828773-121.099322-44.180868-189.916493-57.443877a1164.257739 1164.257739 0 0 0-219.697022-20.436933z" fill="#434E52" p-id="23797"></path><path d="M1458.754216 615.908144C1380.593449 741.591778 1155.227277 832.473137 889.372183 832.473137c-93.715933 0-182.410119-25.231213-261.393263-61.363289a1176.453408 1176.453408 0 0 0 231.612734 22.746585C1095.928678 793.803941 1308.854217 725.371713 1458.754216 615.908144z" fill="#F4AF16" p-id="23798"></path><path d="M1115.718208 826.873977c-76.551009-86.227057-118.702182-198.367724-118.702182-315.722608 0-110.233453 37.77683-217.282385 106.366533-301.269778l13.805428-16.902463 21.241812 4.951757c90.33894 20.996848 171.474261 53.821921 234.464805 94.765775 66.612501 43.288502 113.155515 95.850612 134.589798 152.017181l8.083786 21.18932-51.792225 51.792225 52.49212 52.492121-7.716341 20.996848c-20.419435 55.554161-65.405182 107.766324-130.075475 150.967339-61.030839 40.786378-139.978988 73.821419-228.095762 95.53566l-20.524419 5.056741z" fill="#FFFFFF" p-id="23799"></path><path d="M1130.485991 232.015768c174.973736 40.76888 305.731608 124.231352 344.243327 225.173701l-60.505917 60.505917 61.345791 61.345792c-36.656998 99.735029-163.215501 182.620088-333.692411 224.613784-68.239757-76.848465-109.883506-179.593042-109.883506-292.503593 0-106.471518 37.059437-203.931889 98.475219-279.135601M1103.872486 153.977482l-27.593358 33.769931a503.486924 503.486924 0 0 0-83.987393 148.412723 515.227662 515.227662 0 0 0-30.340446 174.973735c0 125.98109 45.283203 246.328025 127.520858 338.959121l27.995798 31.600256 41.031341-10.113481c92.088677-22.746586 174.781264-57.408883 239.154102-100.417427 34.032392-22.746586 63.218011-47.890311 86.769475-74.74878 25.616155-29.220614 44.688292-60.593405 56.691491-93.243504l15.432683-41.993696-31.635251-31.635252-11.845722-11.845722 11.023345-11.023345 32.072686-32.072686-16.045092-42.413633c-12.580612-32.965052-32.370141-64.565308-58.826169-93.925901-24.338847-27.015945-54.416832-52.22966-89.394082-74.958749-66.367538-43.078534-151.282292-77.47837-245.523146-99.455071L1103.872486 153.977482z" fill="#434E52" p-id="23800"></path><path d="M1253.789983 493.776477m-67.22491 0a67.224909 67.224909 0 1 0 134.449819 0 67.224909 67.224909 0 1 0-134.449819 0Z" fill="#FCCE0B" p-id="23801"></path></svg>