<?xml version="1.0" standalone="no"?><!DOCTYPE svg PUBLIC "-//W3C//DTD SVG 1.1//EN" "http://www.w3.org/Graphics/SVG/1.1/DTD/svg11.dtd"><svg t="1692169354744" class="icon" viewBox="0 0 1024 1024" version="1.1" xmlns="http://www.w3.org/2000/svg" p-id="28389" xmlns:xlink="http://www.w3.org/1999/xlink" width="128" height="128"><path d="M512 512m-512 0a512 512 0 1 0 1024 0 512 512 0 1 0-1024 0Z" fill="#A7FCD0" p-id="28390"></path><path d="M259.2 442.4c-33.6-16.8-46.4-58.4-29.6-91.2l61.6-121.6c16.8-33.6 57.6-47.2 91.2-29.6 33.6 16.8 46.4 58.4 29.6 91.2l-61.6 121.6c-16.8 32.8-57.6 46.4-91.2 29.6zM701.6 667.2c-33.6-16.8-46.4-58.4-29.6-91.2l61.6-121.6c16.8-33.6 57.6-47.2 91.2-29.6 33.6 16.8 46.4 58.4 29.6 91.2l-61.6 121.6c-16.8 33.6-57.6 46.4-91.2 29.6z" fill="#C68D55" p-id="28391"></path><path d="M344.8 548c-33.6-16.8-50.4-60-33.6-93.6l112-220.8c16.8-33.6 61.6-44.8 95.2-28 33.6 16.8 50.4 60 33.6 93.6L439.2 520c-16.8 33.6-60.8 45.6-94.4 28zM565.6 660.8c-33.6-16.8-50.4-60-33.6-93.6l112-220.8c16.8-33.6 61.6-44.8 95.2-28 33.6 16.8 50.4 60 33.6 93.6l-112 220.8c-17.6 33.6-61.6 44.8-95.2 28z" fill="#C68D55" p-id="28392"></path><path d="M412.8 235.2l-61.6 121.6c-16.8 33.6-57.6 47.2-91.2 29.6-14.4-7.2-24.8-19.2-31.2-32.8-15.2 32.8-1.6 72 31.2 88.8 33.6 16.8 74.4 4 91.2-29.6l61.6-121.6c9.6-19.2 9.6-40.8 1.6-59.2-0.8 0.8-1.6 1.6-1.6 3.2z" fill="#A55F26" p-id="28393"></path><path d="M446.4 620.8c-33.6-16.8-46.4-58.4-29.6-91.2l129.6-254.4c16.8-33.6 57.6-47.2 91.2-29.6 33.6 16.8 46.4 58.4 29.6 91.2L538.4 591.2c-17.6 33.6-58.4 47.2-92 29.6z" fill="#C68D55" p-id="28394"></path><path d="M552 243.2L439.2 464c-16.8 33.6-61.6 44.8-95.2 28-15.2-8-27.2-20.8-33.6-36-16 33.6 0.8 75.2 33.6 92 33.6 16.8 78.4 5.6 95.2-28l112-220.8c9.6-18.4 8.8-39.2 0.8-57.6v1.6z" fill="#A55F26" p-id="28395"></path><path d="M1012 621.6l-181.6-92.8c-24-12-52.8-2.4-64.8 20.8-12 24-2.4 52.8 20.8 64.8l195.2 99.2c12.8-29.6 23.2-60 30.4-92z" fill="#C68D55" p-id="28396"></path><path d="M854.4 468l-61.6 121.6c-16.8 33.6-57.6 47.2-91.2 29.6-16-8-27.2-21.6-32.8-36.8-12 32 1.6 68.8 32.8 84.8 33.6 16.8 74.4 4 91.2-29.6l61.6-121.6c8.8-17.6 9.6-37.6 3.2-55.2-0.8 2.4-1.6 4.8-3.2 7.2z" fill="#A55F26" p-id="28397"></path><path d="M772.8 356l-112 220.8c-16.8 33.6-61.6 44.8-95.2 28-15.2-8-27.2-20.8-33.6-36-16 33.6 0.8 75.2 33.6 92 33.6 16.8 78.4 5.6 95.2-28l112-220.8c9.6-18.4 8.8-39.2 0.8-57.6 0 0.8 0 0.8-0.8 1.6z" fill="#A55F26" p-id="28398"></path><path d="M667.2 280.8L538.4 535.2c-16.8 33.6-57.6 47.2-91.2 29.6-14.4-7.2-24.8-19.2-31.2-32.8-15.2 32.8-1.6 72 31.2 88.8 33.6 16.8 74.4 4 91.2-29.6l129.6-254.4c9.6-19.2 9.6-40.8 1.6-59.2-1.6 1.6-1.6 2.4-2.4 3.2zM1000 665.6l-196-100c-13.6-7.2-29.6-7.2-43.2-2.4-3.2 20 6.4 40.8 25.6 50.4l195.2 99.2c7.2-14.4 12.8-30.4 18.4-47.2z" fill="#A55F26" p-id="28399"></path><path d="M984.8 706.4l-180.8-92c-0.8-0.8-2.4-0.8-4-0.8-3.2 0-5.6 1.6-7.2 4l-8 15.2c-10.4 20-31.2 32.8-53.6 32.8-9.6 0-18.4-2.4-27.2-6.4-16-8-27.2-22.4-31.2-40-0.8-3.2-3.2-5.6-7.2-6.4-3.2-0.8-6.4 1.6-8 4l-5.6 10.4c-9.6 19.2-31.2 31.2-55.2 31.2-10.4 0-20.8-2.4-29.6-7.2-17.6-8.8-31.2-27.2-34.4-47.2-0.8-3.2-2.4-5.6-5.6-6.4-3.2-0.8-6.4 0-8 2.4-17.6 18.4-47.2 24-70.4 12-24-12-36.8-37.6-32-64 0.8-3.2-0.8-6.4-3.2-8-2.4-1.6-5.6-2.4-8-0.8-17.6 8.8-40.8 8.8-59.2 0-14.4-7.2-25.6-20.8-32-36-5.6-16-4.8-32.8 1.6-46.4l5.6-10.4c1.6-3.2 0.8-6.4-1.6-8.8-2.4-2.4-5.6-3.2-8.8-1.6-16 7.2-35.2 6.4-50.4-1.6-14.4-7.2-24.8-20-29.6-35.2-4.8-15.2-4-31.2 4-45.6L296.8 232c10.4-20 30.4-32.8 53.6-32.8 9.6 0 18.4 2.4 27.2 6.4 16 8 27.2 22.4 31.2 40 0.8 3.2 3.2 5.6 7.2 6.4 3.2 0.8 6.4-1.6 8-4l5.6-10.4C440.8 218.4 464 208 488 208c10.4 0 18.4 0.8 27.2 4.8 17.6 8.8 31.2 27.2 34.4 47.2 0.8 3.2 2.4 5.6 5.6 6.4 3.2 0.8 6.4 0 8-2.4 17.6-18.4 47.2-24 70.4-12 24 12 36.8 37.6 32 64-0.8 3.2 0.8 6.4 3.2 8 2.4 1.6 5.6 2.4 8 0.8 17.6-8.8 40.8-8.8 59.2 0 30.4 15.2 44 54.4 29.6 82.4l-5.6 10.4c-1.6 3.2-0.8 6.4 1.6 8.8 2.4 2.4 5.6 3.2 8.8 1.6 16-7.2 34.4-6.4 50.4 1.6 29.6 15.2 41.6 51.2 26.4 80.8l-10.4 20c-1.6 4-0.8 8.8 3.2 10.4l169.6 86.4c1.6-5.6 2.4-10.4 4-16l-158.4-80.8 6.4-13.6c19.2-37.6 4-83.2-33.6-102.4-14.4-7.2-30.4-9.6-45.6-7.2 14.4-36-2.4-80-39.2-98.4-18.4-9.6-40.8-11.2-60.8-4.8 0-28-15.2-54.4-41.6-68-25.6-12.8-56.8-10.4-79.2 6.4-7.2-20-21.6-36.8-40-45.6-10.4-4-20.8-4.8-33.6-4.8-28 0-55.2 11.2-68.8 32.8-7.2-13.6-18.4-25.6-32.8-32.8-11.2-5.6-22.4-8-34.4-8-28.8 0-54.4 16-68 41.6l-61.6 121.6c-19.2 37.6-4 83.2 33.6 102.4 14.4 7.2 30.4 9.6 45.6 7.2-6.4 16.8-7.2 35.2 0 53.6 7.2 19.2 21.6 36 39.2 44.8 18.4 9.6 40.8 11.2 60.8 4.8 0 28 15.2 54.4 41.6 68 25.6 12.8 56.8 10.4 79.2-6.4 7.2 20 21.6 36.8 40 45.6 11.2 5.6 24 8.8 36.8 8.8 28 0 52.8-13.6 66.4-35.2 7.2 13.6 18.4 25.6 32.8 32.8 10.4 5.6 22.4 8 34.4 8 28.8 0 54.4-16 68-41.6l4-8.8L979.2 720c1.6-4 4-8.8 5.6-13.6z" fill="#7C4119" p-id="28400"></path><path d="M749.6 536c-32.8 0-58.4 15.2-58.4 34.4 0 18.4-28 34.4-63.2 34.4-34.4 0-63.2-19.2-63.2-42.4S538.4 520 505.6 520c-32.8 0-59.2-22.4-59.2-50.4s-28.8-50.4-63.2-50.4c-34.4 0-63.2-30.4-63.2-67.2 0-36.8-28-67.2-60.8-67.2s-60.8 40-60.8 88v312.8c0 48 28 88 60.8 88s60-24.8 60-54.4c0-30.4 29.6-54.4 64-54.4s64 40 64 88v118.4c0 48 26.4 88 58.4 88 32.8 0 58.4-24.8 58.4-54.4 0-30.4 28-54.4 63.2-54.4 34.4 0 63.2-20.8 63.2-46.4s25.6-46.4 58.4-46.4 58.4-40 58.4-88V624c0.8-48-24.8-88-57.6-88z" fill="#FBD000" p-id="28401"></path><path d="M499.2 491.2c-0.8 0-2.4 0-3.2-0.8-4-1.6-5.6-6.4-3.2-10.4l48-96c1.6-4 6.4-5.6 10.4-3.2 4 1.6 5.6 6.4 3.2 10.4l-48 96c-1.6 2.4-4.8 4-7.2 4zM575.2 339.2c-1.6 0-2.4 0-3.2-0.8-4-1.6-5.6-6.4-3.2-10.4l28-56c1.6-4 6.4-5.6 10.4-3.2 4 1.6 5.6 6.4 3.2 10.4l-28 56c-1.6 2.4-4.8 4-7.2 4zM603.2 555.2c-1.6 0-2.4 0-3.2-0.8-4-1.6-5.6-6.4-3.2-10.4l28-56c1.6-4 6.4-5.6 10.4-3.2 4 1.6 5.6 6.4 3.2 10.4l-28 56c-1.6 2.4-4.8 4-7.2 4zM651.2 459.2c-1.6 0-2.4 0-3.2-0.8-4-1.6-5.6-6.4-3.2-10.4l56-112c1.6-4 6.4-5.6 10.4-3.2 4 1.6 5.6 6.4 3.2 10.4l-56 112c-1.6 2.4-4.8 4-7.2 4zM403.2 387.2c-0.8 0-2.4 0-3.2-0.8-4-1.6-5.6-6.4-3.2-10.4l72-144c1.6-4 6.4-5.6 10.4-3.2 4 1.6 5.6 6.4 3.2 10.4l-72 144c-1.6 2.4-4.8 4-7.2 4zM311.2 283.2c-0.8 0-2.4 0-3.2-0.8-4-1.6-5.6-6.4-3.2-10.4l28-56c1.6-4 6.4-5.6 10.4-3.2 4 1.6 5.6 6.4 3.2 10.4l-28 56c-1.6 2.4-4.8 4-7.2 4zM763.2 515.2c-1.6 0-2.4 0-3.2-0.8-4-1.6-5.6-6.4-3.2-10.4l24-48c1.6-4 6.4-5.6 10.4-3.2 4 1.6 5.6 6.4 3.2 10.4l-24 48c-1.6 2.4-4.8 4-7.2 4z" fill="#FFFFFF" opacity=".5" p-id="28402"></path><path d="M448 694.4c0-48.8-29.6-86.4-64-86.4s-64 23.2-64 52.8c0 30.4-24 59.2-56 59.2-32.8 0-64-44-64-92v56c0 48.8 28 88 60.8 88s60-24.8 60-54.4c0-30.4 29.6-54.4 64-54.4s64 39.2 64 88v-56.8zM752 696c-32 0-64 22.4-64 48s-21.6 48-56 48-64 25.6-64 56-32 56-64 56-56-42.4-56-91.2v56c0 48 26.4 88 58.4 88s58.4-24.8 58.4-54.4c0-30.4 28-54.4 63.2-54.4 34.4 0 63.2-20.8 63.2-46.4 0-25.6 25.6-46.4 58.4-46.4 32 0 58.4-39.2 58.4-88V624c0-2.4 1.6-4 1.6-6.4-4 45.6-26.4 78.4-57.6 78.4z" fill="#F4B10B" p-id="28403"></path><path d="M265.6 688.8c-7.2 0-14.4-2.4-20.8-6.4-14.4-9.6-20.8-27.2-20.8-39.2V488c0-4.8 3.2-8 8-8s8 3.2 8 8v155.2c0 8 4.8 20 13.6 25.6 6.4 4 13.6 4.8 21.6 1.6 4-1.6 8.8 0 10.4 4.8 1.6 4 0 8.8-4.8 10.4-4.8 2.4-10.4 3.2-15.2 3.2zM232 416c-4.8 0-8-3.2-8-8v-56c0-4.8 3.2-8 8-8s8 3.2 8 8v56c0 4.8-3.2 8-8 8zM420 494.4c-4 0-7.2-3.2-8-7.2-3.2-25.6-21.6-31.2-65.6-40.8-5.6-0.8-11.2-2.4-16.8-4-4-0.8-7.2-5.6-5.6-9.6 0.8-4 5.6-7.2 9.6-5.6 5.6 1.6 11.2 2.4 16.8 4 42.4 9.6 72.8 16 77.6 54.4 0.8 4-2.4 8.8-7.2 8.8h-0.8zM629.6 651.2c-8.8 0-18.4-0.8-28-3.2-24-5.6-42.4-17.6-50.4-32l-4.8-9.6c-12-22.4-23.2-44-52-44.8-4.8 0-8-4-8-8.8 0-4 4-8.8 8-8.8 38.4 0 52.8 28.8 65.6 53.6l4.8 9.6c5.6 10.4 21.6 20 40 24 23.2 5.6 45.6 3.2 60.8-7.2 14.4-9.6 23.2-22.4 32-34.4 12-16 23.2-32 44.8-32.8 12.8-0.8 23.2 3.2 32 11.2 16 16 16.8 44.8 16 60.8 0 4.8-4 8-8.8 7.2-4.8 0-8-4-7.2-8.8 1.6-21.6-3.2-39.2-11.2-48-4.8-4.8-11.2-7.2-19.2-6.4-12.8 1.6-20 11.2-32 27.2-8.8 12.8-19.2 26.4-36 37.6-12.8 8.8-28.8 13.6-46.4 13.6zM508.8 875.2h-3.2c-4-0.8-7.2-4.8-7.2-8.8 0.8-4 4.8-7.2 8.8-7.2 3.2 0 6.4-0.8 8.8-3.2 8-7.2 12.8-24.8 12.8-47.2 0-16.8 6.4-31.2 18.4-40.8 17.6-15.2 41.6-17.6 56.8-15.2 4 0.8 7.2 4.8 6.4 8.8-0.8 4-4.8 7.2-8.8 6.4-12.8-2.4-32 0.8-44 11.2-8 7.2-12.8 16.8-12.8 28.8 0 27.2-6.4 48.8-18.4 59.2-4.8 5.6-11.2 8-17.6 8z" fill="#FFFFFF" opacity=".5" p-id="28404"></path><path d="M576 136c-17.6 0-32-14.4-32-32s14.4-32 32-32 32 14.4 32 32-14.4 32-32 32z m0-48.8c-9.6 0-16.8 8-16.8 16.8 0 9.6 8 16.8 16.8 16.8 9.6 0 16.8-8 16.8-16.8 0-9.6-7.2-16.8-16.8-16.8zM784 880c-17.6 0-32-14.4-32-32s14.4-32 32-32 32 14.4 32 32-14.4 32-32 32z m0-48.8c-9.6 0-16.8 8-16.8 16.8 0 9.6 8 16.8 16.8 16.8 9.6 0 16.8-8 16.8-16.8 0-9.6-7.2-16.8-16.8-16.8zM793.6 242.4c0-3.2 3.2-6.4 8-7.2l15.2-2.4c4-0.8 8.8-4.8 8.8-8.8l2.4-15.2c0.8-4 4-8 7.2-8s6.4 3.2 7.2 8l2.4 15.2c0.8 4 4.8 8.8 8.8 8.8l15.2 2.4c4 0.8 8 4 8 7.2s-3.2 6.4-8 7.2l-15.2 2.4c-4 0.8-8.8 4.8-8.8 8.8l-2.4 15.2c-0.8 4-4 8-7.2 8s-6.4-3.2-7.2-8l-2.4-16.8c-0.8-4-4.8-8-8.8-8.8l-14.4-0.8c-4.8-1.6-8.8-4.8-8.8-7.2zM61.6 552.8c0-3.2 3.2-6.4 8-7.2l15.2-2.4c4-0.8 8.8-4.8 8.8-8.8L96 520c0.8-4 4-8 7.2-8s6.4 3.2 7.2 8l2.4 15.2c0.8 4 4.8 8.8 8.8 8.8l15.2 2.4c4 0.8 8 4 8 7.2s-3.2 6.4-8 7.2l-15.2 2.4c-4 0.8-8.8 4.8-8.8 8.8l-2.4 15.2c-0.8 4-4 8-7.2 8s-6.4-3.2-7.2-8l-2.4-16.8c-0.8-4-4.8-8-8.8-8.8l-14.4-0.8c-4.8-1.6-8.8-4.8-8.8-8zM479.2 453.6c0-3.2-3.2-6.4-8-7.2l-38.4-6.4c-4-0.8-8.8-4.8-9.6-9.6l-6.4-38.4c-0.8-4-4-8-7.2-8s-6.4 3.2-7.2 8l-6.4 38.4c-0.8 4-4.8 8.8-9.6 9.6l-38.4 6.4c-4 0.8-8 4-8 7.2s3.2 6.4 8 7.2l37.6 4.8c4 0.8 8.8 4.8 9.6 8.8l7.2 40c0.8 4 4 8 7.2 8s6.4-3.2 7.2-8l7.2-40.8c0.8-4 4.8-8 9.6-8.8l37.6-4.8c4 0 8-3.2 8-6.4z" fill="#FFFFFF" p-id="28405"></path></svg>