<?xml version="1.0" standalone="no"?><!DOCTYPE svg PUBLIC "-//W3C//DTD SVG 1.1//EN" "http://www.w3.org/Graphics/SVG/1.1/DTD/svg11.dtd"><svg t="1692521101710" class="icon" viewBox="0 0 1024 1024" version="1.1" xmlns="http://www.w3.org/2000/svg" p-id="7694" xmlns:xlink="http://www.w3.org/1999/xlink" width="128" height="128"><path d="M128 601.6 128 332.8c0-25.6 12.8-44.8 38.4-44.8l121.6 0C307.2 294.4 320 307.2 320 326.4c0 19.2-12.8 32-32 32L198.4 358.4l0 70.4 76.8 0c19.2 0 32 12.8 38.4 32 0 19.2-12.8 32-38.4 32L198.4 492.8 198.4 576l89.6 0C313.6 576 320 582.4 326.4 608 320 627.2 313.6 640 288 640l-128 0C140.8 640 128 627.2 128 601.6z" p-id="7695" fill="#1afa29"></path><path d="M339.2 582.4l96-128L358.4 345.6C352 339.2 345.6 332.8 345.6 326.4c0-19.2 12.8-32 38.4-38.4 12.8 0 19.2 6.4 32 19.2l57.6 83.2 64-83.2c12.8-12.8 19.2-19.2 32-19.2 25.6 0 32 12.8 38.4 38.4 0 6.4 0 12.8-6.4 19.2L518.4 454.4l96 128c6.4 6.4 6.4 12.8 6.4 25.6 0 19.2-12.8 32-38.4 32C576 640 563.2 633.6 556.8 627.2L480 518.4 396.8 627.2C390.4 633.6 384 640 364.8 640c-25.6 0-32-12.8-38.4-32C332.8 595.2 332.8 588.8 339.2 582.4z" p-id="7696" fill="#1afa29"></path><path d="M646.4 608 646.4 332.8c0-25.6 12.8-38.4 38.4-38.4l89.6 0c76.8 6.4 121.6 44.8 121.6 115.2-6.4 70.4-44.8 108.8-121.6 115.2l-51.2 0 0 76.8c0 25.6-12.8 32-38.4 32S652.8 627.2 646.4 608zM723.2 358.4l0 102.4L768 460.8c32 0 44.8-19.2 51.2-51.2 0-32-19.2-51.2-51.2-51.2L723.2 358.4z" p-id="7697" fill="#1afa29"></path><path d="M992 192 960 192 960 160C960 140.8 947.2 128 928 128S896 140.8 896 160L896 192l-32 0C844.8 192 832 204.8 832 224S844.8 256 864 256L896 256l0 32C896 307.2 908.8 320 928 320S960 307.2 960 288L960 256l32 0C1011.2 256 1024 243.2 1024 224S1011.2 192 992 192z" p-id="7698" fill="#1afa29"></path><path d="M928 704l-832 0C44.8 704 0 748.8 0 800S44.8 896 96 896l832 0c51.2 0 96-44.8 96-96S979.2 704 928 704zM928 832 640 832l0-64 288 0c19.2 0 32 12.8 32 32S947.2 832 928 832z" p-id="7699" fill="#1afa29"></path></svg>