<?xml version="1.0" standalone="no"?><!DOCTYPE svg PUBLIC "-//W3C//DTD SVG 1.1//EN" "http://www.w3.org/Graphics/SVG/1.1/DTD/svg11.dtd"><svg t="1692065514291" class="icon" viewBox="0 0 1024 1024" version="1.1" xmlns="http://www.w3.org/2000/svg" p-id="28839" xmlns:xlink="http://www.w3.org/1999/xlink" width="128" height="128"><path d="M206.3 207.4L93.7 263.9C77 272.3 66.5 289 66.5 307.2c29.7 344.4 178.2 605.7 222.7 605.7h445.5c44.5 0 193-261.3 222.7-605.7 0-16.2-8.3-31.2-21.8-40.2l-5.3-3.1-112.6-56.5c-15-7.5-33.3-3.5-43.4 8.9l-2.8 4-215.4 359.6c-12.4 20.7-36.5 28.4-57.5 22.9l-5.2-1.6c-8.5-3.2-16.2-8.6-22.2-16.4l-3.3-4.9-215.4-359.6c-9.3-15.5-29.7-21.2-46.2-12.9z m517 270.6h80c19.1 0 34.2 16.1 31.4 34.8-2.3 15.4-17.6 26-33.9 26h-80c-19.1 0-34.2-16.1-31.4-34.8 2.2-15.4 17.6-26 33.9-26z" fill="#3BADEC" p-id="28840"></path><path d="M395.4 311.1l114.8-66.7c7.5-4.4 16.7-4.4 24.1 0l114.8 66.7c27.4 15.9 61.6-4 61.6-35.8V152.5c0-31.8-34.2-51.7-61.6-35.8l-114.8 66.7c-7.5 4.4-16.7 4.4-24.1 0l-114.8-66.7c-27.4-15.9-61.6 4-61.6 35.8v122.8c0 31.8 34.2 51.7 61.6 35.8" fill="#3BADEC" p-id="28841"></path></svg>