<?xml version="1.0" standalone="no"?><!DOCTYPE svg PUBLIC "-//W3C//DTD SVG 1.1//EN" "http://www.w3.org/Graphics/SVG/1.1/DTD/svg11.dtd"><svg t="1692065482058" class="icon" viewBox="0 0 1024 1024" version="1.1" xmlns="http://www.w3.org/2000/svg" p-id="27708" xmlns:xlink="http://www.w3.org/1999/xlink" width="128" height="128"><path d="M512.9 220.5c-6.3 7.3-38 13.9-61.9 17.9-14.9 2.5-24.9 16.8-22 31.7l6.4 32.9c4.4 22.8 11.4 44.9 20.7 66.2l45.7 104.2c16.6 51.5-22.1 89.2-22.1 89.2-10.7 26.1-79 80.9-101.4 98.4-5.5 4.3-10.7 8.9-15.5 13.9-34.2 35.8-58.7 78.5-70 100.3-7.1 13.6-12 28.2-14.2 43.4-1.2 8.2-1.5 15.7-1.2 22.3 1.3 28.5 25 50.8 53.5 50.8h34.8c64.4 0 104.8 5.5 152.6 33.1s152.6 14.7 176.6-14.7c8.5-10.4 21.1-17.6 33.9-22.6 22.5-8.7 47.1-10.5 70.8-5.9 28.4 5.6 75.6 15 105 21.1 23 4.8 33.5-8.9 38.3-23.1 4.3-12.9 4-26.8-0.4-39.7-5-14.5-14.1-40.1-26.9-71.5-20.2-49.7-101.2-154.5-143.5-180.2-42.3-25.7-68-68-68-99.3s25.7-92 49.7-145.3c23.9-53.3 31.3-92 9.2-103s-92-14.7-92-14.7v7.4c0 40.5-64.4 53.3-64.4 53.3s-40.5 0-58.9-36.8L529.3 213s-5.4-5.3-16.4 7.5z" fill="#FFD2C2" p-id="27709"></path><path d="M491.8 923.6c-26.5 0-61.6-3.6-88.8-19.2C353.9 876 313.6 871 247 871h-37.9c-41.9 0-76.2-32.6-78.2-74.3-0.4-8.9 0.1-18.4 1.5-28.1 2.7-18.4 8.6-36.4 17.5-53.5 13-25 40.6-73.1 79.4-113.7 5.6-5.9 12-11.6 19-17.1 55.9-43.7 97.7-83.4 104.1-98.9l1.6-3.9 2.9-2.7c1.9-1.9 32.2-33.5 19.3-75.7L326.5 290c-10.5-23.9-18.3-48.8-23.3-74.4l-7.5-38.6c-1.2-6.2-1.1-12.5 0.5-18.6 5.4-20.4 20.9-34.2 40.1-37.5 42-7.1 54-12.6 56.4-13.9 8.6-9.7 17.8-14.8 27.3-15.1 7.2-0.3 14.3 2.4 19 7.1l2.3 2.3 21.5 42.9c12.2 24.5 37.3 28.3 44.4 28.8 15.5-3.7 51.7-16.7 51.7-37.9v-21.9l-0.2-14.2c-0.6-8.8 6-13.4 14.8-13.9 2.7-0.2 8.9 0.9 13.8 2.8 4.2 1.6 7 5.7 7 10.1 0.4 8.5-1.9 9.4 6.6 10.1 24.9 1.9 66.2 6.7 87 17.1 13.6 6.8 28.9 22.6 24.7 59-2.4 20.5-10.7 46.4-25.4 79.1C670.3 301 635 379.7 635 413c0 25.1 22.6 65.5 64.4 90.9 50.6 30.8 141 148.8 164.1 205.5 13.8 33.9 23.8 61.6 29.7 78.8 6.3 18.3 6.4 38.2 0.4 56-10.2 30.3-34.4 44.6-64.7 38.3-32.5-6.8-85.4-17.2-114-22.9-22.5-4.4-45.3-2.6-65.9 5.4-13.1 5.1-22.7 11.3-28.5 18.5-23.6 29-82.4 36.8-99.8 38.5-6.9 0.8-17 1.6-28.9 1.6z m-104-419.2c-15.1 29.7-70.2 76.6-114.7 111.4-5.5 4.3-10.4 8.7-14.7 13.2-35.4 37-60.8 81.4-72.9 104.5-6.8 13.2-11.4 26.9-13.4 40.9-1.1 7.2-1.4 14.1-1.1 20.4 1 20.3 17.7 36.2 38.2 36.2H247c70.7 0 119.6 6.2 176 38.7 20 11.5 55.9 16.4 93.8 12.7 38-3.7 65.3-14.9 72.7-24 10.3-12.7 25.5-23 45.1-30.6 27.7-10.7 58.2-13.3 88.1-7.4 28.7 5.7 81.7 16.1 114.4 23 9 1.9 14.4 0.6 18.6-11.9 3.2-9.5 3.1-20.2-0.4-30.3-5.7-16.8-15.4-43.7-28.9-76.7-9.7-23.7-35.6-64.1-66.2-102.9-31.5-40-62.8-72.1-81.7-83.5-49.2-30-83.6-81.4-83.6-125.1 0-34.7 22.3-91.5 55.8-166.2 12.8-28.6 20.2-51.2 22.1-67.4 0.9-7.8 0.7-16.8-2.8-18.5-11.2-5.6-44.4-10.1-72.5-12.5-3.7 16.1-15.1 34.9-44.4 49.9-19.8 10.2-39.4 14.2-40.2 14.3l-1.9 0.4h-2c-2.3 0-56.7-0.6-81.9-51.1l-11.2-22.3c-8.7 6-26.8 12.8-72.9 20.6-3.4 0.6-5.3 2.7-6.1 3.9-0.8 1.2-2.1 3.7-1.5 7.1l7.1 36.7c4.4 22.7 11.3 44.8 20.6 66L413.6 389l0.3 1c19 58.4-15.7 102.7-26.1 114.4z" fill="#F7931E" p-id="27710"></path><path d="M517.1 475.7c-6.6 0-12.6-1-17.9-2.9-31.4-11.4-98.7-26.1-99.4-26.3l8.5-39.1c2.9 0.6 70.7 15.4 104.6 27.7 4.7 1.7 21.1 0.3 53.4-15.5 23-11.3 42.5-24.2 42.7-24.4l22.2 33.3c-0.9 0.6-21.6 14.4-46.9 26.8-27.6 13.7-49.8 20.4-67.2 20.4z" fill="#F7931E" p-id="27711"></path><path d="M373 851h-40c0-3.2 0.1-78.1 8.2-132.9 7.1-48.1 48.8-79.4 89.2-109.8 13-9.8 26.5-19.9 38.4-30.4 38.9-34 26.6-109.8 26.5-110.6l39.4-6.8c0.7 4 16.3 98.6-39.5 147.4-13 11.4-27.1 22-40.7 32.2-35.5 26.6-68.9 51.8-73.7 83.7-7.7 52-7.8 126.5-7.8 127.2zM634.9 754.9c-2.9-9.5-5.1-27.7 10-75.7 7.7-24.3 16.2-45 16.6-45.9l36.9 15.3L680 641l18.5 7.7c-0.1 0.2-8.3 20.1-15.4 42.7-12.9 40.8-10 51.3-9.9 51.7l-38.3 11.8z" fill="#F7931E" p-id="27712"></path></svg>