<?xml version="1.0" standalone="no"?><!DOCTYPE svg PUBLIC "-//W3C//DTD SVG 1.1//EN" "http://www.w3.org/Graphics/SVG/1.1/DTD/svg11.dtd"><svg t="1692156667493" class="icon" viewBox="0 0 1024 1024" version="1.1" xmlns="http://www.w3.org/2000/svg" p-id="9634" xmlns:xlink="http://www.w3.org/1999/xlink" width="128" height="128"><path d="M641.92 561.856c9.152 7.456 17.056 14.688 23.872 21.824 72.64 64.64 110.464 129.984 100.704 231.36l0.128 52.448V896h-63.968v-84.064c7.52-79.648-20.512-128.032-81.312-182.304-2.976-3.04-9.6-9.12-19.872-18.176l40.448-49.6zM767.68 128l-0.064 95.584c3.008 57.568-12.224 108.32-44.064 148.48-31.552 48.16-78.464 89.504-149.408 137.632a10373.28 10373.28 0 0 0-105.792 68.736c-30.912 20.544-50.976 35.904-65.696 51.2-60.8 54.272-88.832 102.656-81.312 182.304V896h-64l0.16-80.96c-9.76-101.376 28.096-166.72 100.704-231.36 15.456-16.224 36-32.32 65.6-52.416l15.84-10.496c13.024-8.48 41.824-27.104 86.368-55.808 71.424-47.456 116.608-86.112 145.696-130.24 23.584-29.984 34.24-65.408 32-109.472V128h63.968z m-127.488 672v64h-256v-64h256z m-32-128v64h-192v-64h192zM320.32 128v97.248c-2.272 44.064 8.384 79.488 32 109.44 12.704 19.2 27.744 36.672 46.208 54.08l9.504 8.736-42.56 47.808c-26.784-23.872-48.48-48-65.024-73.248C270.624 334.4 255.328 287.456 256 234.304L256.32 128h63.968z m287.872 160v64h-192V288h192z m32-128v64h-256V160h256z" fill="#9c9c9b" p-id="9635"></path></svg>