<?xml version="1.0" standalone="no"?><!DOCTYPE svg PUBLIC "-//W3C//DTD SVG 1.1//EN" "http://www.w3.org/Graphics/SVG/1.1/DTD/svg11.dtd"><svg t="1691985301000" class="icon" viewBox="0 0 1024 1024" version="1.1" xmlns="http://www.w3.org/2000/svg" p-id="21451" xmlns:xlink="http://www.w3.org/1999/xlink" width="128" height="128"><path d="M0 0m204.8 0l614.4 0q204.8 0 204.8 204.8l0 614.4q0 204.8-204.8 204.8l-614.4 0q-204.8 0-204.8-204.8l0-614.4q0-204.8 204.8-204.8Z" fill="#FFEC9C" p-id="21452"></path><path d="M819.2 0H534.272A756.224 756.224 0 0 0 0 483.584V819.2a204.8 204.8 0 0 0 204.8 204.8h614.4a204.8 204.8 0 0 0 204.8-204.8V204.8a204.8 204.8 0 0 0-204.8-204.8z" fill="#FFE98A" p-id="21453"></path><path d="M819.2 0h-3.84a754.944 754.944 0 0 0-539.392 1024H819.2a204.8 204.8 0 0 0 204.8-204.8V204.8a204.8 204.8 0 0 0-204.8-204.8z" fill="#FFE471" p-id="21454"></path><path d="M497.152 721.152A751.104 751.104 0 0 0 560.384 1024H819.2a204.8 204.8 0 0 0 204.8-204.8V204.8a204.8 204.8 0 0 0-89.088-168.96 754.688 754.688 0 0 0-437.76 685.312z" fill="#FFE161" p-id="21455"></path><path d="M296.704 242.688h430.592a53.76 53.76 0 0 1 53.76 53.76v350.208a134.656 134.656 0 0 1-134.656 134.656H377.344a134.656 134.656 0 0 1-134.656-134.656V296.704a53.76 53.76 0 0 1 54.016-54.016z" fill="#FFF8D9" p-id="21456"></path><path d="M727.296 242.688H296.704a53.76 53.76 0 0 0-54.016 54.016v296.192a134.656 134.656 0 0 0 134.656 134.4h269.312a134.656 134.656 0 0 0 134.656-134.4V296.704a53.76 53.76 0 0 0-54.016-54.016z" fill="#FFFFFF" p-id="21457"></path><path d="M252.510783 220.233727m76.017374 27.668062l-0.240561-0.087558q76.017374 27.668062 48.349313 103.685436l-92.022572 252.829938q-27.668062 76.017374-103.685436 48.349313l0.240561 0.087557q-76.017374-27.668062-48.349312-103.685436l92.022571-252.829938q27.668062-76.017374 103.685436-48.349312Z" fill="#FFFFFF" p-id="21458"></path><path d="M918.667151 624.636467m-76.017374 27.668062l0.240561-0.087557q-76.017374 27.668062-103.685436-48.349313l-92.022571-252.829938q-27.668062-76.017374 48.349312-103.685436l-0.240561 0.087558q76.017374-27.668062 103.685436 48.349312l92.022571 252.829938q27.668062 76.017374-48.349312 103.685436Z" fill="#FFFFFF" p-id="21459"></path><path d="M377.344 458.24m26.88 0l0 0q26.88 0 26.88 26.88l0 54.016q0 26.88-26.88 26.88l0 0q-26.88 0-26.88-26.88l0-54.016q0-26.88 26.88-26.88Z" fill="#FFE98A" p-id="21460"></path><path d="M592.896 458.24m26.88 0l0 0q26.88 0 26.88 26.88l0 54.016q0 26.88-26.88 26.88l0 0q-26.88 0-26.88-26.88l0-54.016q0-26.88 26.88-26.88Z" fill="#FFE98A" p-id="21461"></path><path d="M471.552 638.464a40.448 26.88 0 1 0 80.896 0 40.448 26.88 0 1 0-80.896 0Z" fill="#FFE98A" p-id="21462"></path><path d="M551.936 699.648a53.248 53.248 0 0 1-53.248-53.248 12.8 12.8 0 0 1 12.8-12.8 12.8 12.8 0 0 1 12.8 12.8 27.648 27.648 0 0 0 27.648 27.648 28.16 28.16 0 0 0 22.784-12.032 12.8 12.8 0 0 1 20.992 14.592 53.504 53.504 0 0 1-43.776 23.04z" fill="#FFE98A" p-id="21463"></path><path d="M472.064 699.648a53.504 53.504 0 0 1-43.776-23.04 12.8 12.8 0 0 1 20.992-14.592 28.16 28.16 0 0 0 22.784 12.032 27.648 27.648 0 0 0 27.648-27.648 12.8 12.8 0 0 1 12.8-12.8 12.8 12.8 0 0 1 12.8 12.8 53.248 53.248 0 0 1-53.248 53.248z" fill="#FFE98A" p-id="21464"></path></svg>