<?xml version="1.0" standalone="no"?><!DOCTYPE svg PUBLIC "-//W3C//DTD SVG 1.1//EN" "http://www.w3.org/Graphics/SVG/1.1/DTD/svg11.dtd"><svg t="1692157076406" class="icon" viewBox="0 0 1024 1024" version="1.1" xmlns="http://www.w3.org/2000/svg" p-id="17731" xmlns:xlink="http://www.w3.org/1999/xlink" width="128" height="128"><path d="M512 512m-450.56 0a450.56 450.56 0 1 0 901.12 0 450.56 450.56 0 1 0-901.12 0Z" fill="#FCC632" p-id="17732"></path><path d="M223.29344 223.29344h577.41312v577.41312H223.29344z" fill="#FFFFFF" p-id="17733"></path><path d="M800.768 815.104H223.232a14.336 14.336 0 0 1-14.336-14.336V223.232a14.336 14.336 0 0 1 14.336-14.336h577.536a14.336 14.336 0 0 1 14.336 14.336v577.536a14.336 14.336 0 0 1-14.336 14.336z m-563.2-28.672h548.864V237.568H237.568z" p-id="17734"></path><path d="M335.0528 295.8336a14.336 14.336 0 0 1-14.336-14.336V165.08928a14.336 14.336 0 1 1 28.672 0v116.40832a14.336 14.336 0 0 1-14.336 14.336zM423.5264 295.8336a14.336 14.336 0 0 1-14.336-14.336V165.08928a14.336 14.336 0 0 1 28.672 0v116.40832a14.336 14.336 0 0 1-14.336 14.336zM512 295.8336a14.336 14.336 0 0 1-14.336-14.336V165.08928a14.336 14.336 0 0 1 28.672 0v116.40832a14.336 14.336 0 0 1-14.336 14.336zM600.4736 295.8336a14.336 14.336 0 0 1-14.336-14.336V165.08928a14.336 14.336 0 0 1 28.672 0v116.40832a14.336 14.336 0 0 1-14.336 14.336zM688.9472 295.8336a14.336 14.336 0 0 1-14.336-14.336V165.08928a14.336 14.336 0 0 1 28.672 0v116.40832a14.336 14.336 0 0 1-14.336 14.336zM354.42688 379.02336h28.672v28.672h-28.672zM496.72192 379.02336h28.672v28.672h-28.672zM638.99648 379.02336h28.672v28.672h-28.672z" p-id="17735"></path><path d="M653.33248 547.55328m-76.06272 0a76.06272 76.06272 0 1 0 152.12544 0 76.06272 76.06272 0 1 0-152.12544 0Z" fill="#FF5E4C" p-id="17736"></path><path d="M653.312 637.952a90.39872 90.39872 0 1 1 90.39872-90.39872A90.50112 90.50112 0 0 1 653.312 637.952z m0-152.12544a61.72672 61.72672 0 1 0 61.72672 61.72672A61.78816 61.78816 0 0 0 653.312 485.82656zM354.42688 533.21728h28.672v28.672h-28.672zM496.72192 533.21728h28.672v28.672h-28.672z" p-id="17737"></path><path d="M638.99648 533.21728h28.672v28.672h-28.672zM354.42688 687.39072h28.672v28.672h-28.672zM496.72192 687.39072h28.672v28.672h-28.672zM638.99648 687.39072h28.672v28.672h-28.672z" p-id="17738"></path></svg>