<?xml version="1.0" standalone="no"?><!DOCTYPE svg PUBLIC "-//W3C//DTD SVG 1.1//EN" "http://www.w3.org/Graphics/SVG/1.1/DTD/svg11.dtd"><svg t="1692169374624" class="icon" viewBox="0 0 1024 1024" version="1.1" xmlns="http://www.w3.org/2000/svg" p-id="29571" xmlns:xlink="http://www.w3.org/1999/xlink" width="128" height="128"><path d="M522.24 143.725714a24.380952 24.380952 0 0 0 24.380952-24.380952v-73.142857a24.380952 24.380952 0 1 0-48.761904 0v73.142857a24.380952 24.380952 0 0 0 24.380952 24.380952" fill="#88C057" p-id="29572"></path><path d="M522.24 216.868571c67.218286 0 121.904762-54.686476 121.904762-121.904761a24.380952 24.380952 0 1 0-48.761905 0c0 40.326095-32.816762 73.142857-73.142857 73.142857s-73.142857-32.816762-73.142857-73.142857a24.380952 24.380952 0 1 0-48.761905 0c0 67.218286 54.686476 121.904762 121.904762 121.904761" fill="#88C057" p-id="29573"></path><path d="M737.377524 285.110857a119.174095 119.174095 0 0 0-92.086857-43.78819h-246.247619a119.125333 119.125333 0 0 0-92.062477 43.763809 125.123048 125.123048 0 0 0-26.160761 103.814095l99.547428 512.975239c15.993905 82.432 82.748952 119.344762 141.799619 119.344761 59.075048 0 125.830095-36.912762 141.799619-119.344761l99.547429-512.975239a125.074286 125.074286 0 0 0-26.136381-103.789714" fill="#EE9201" p-id="29574"></path><path d="M400.335238 631.344762a24.380952 24.380952 0 1 1 0-48.761905h97.52381a24.380952 24.380952 0 1 1 0 48.761905h-97.52381z m219.428572 146.285714h-97.52381a24.380952 24.380952 0 1 1 0-48.761905h97.52381a24.380952 24.380952 0 1 1 0 48.761905z m48.761904-268.190476h-97.523809a24.380952 24.380952 0 1 1 0-48.761905h97.523809a24.380952 24.380952 0 1 1 0 48.761905z" fill="#DA6100" p-id="29575"></path></svg>