<?xml version="1.0" standalone="no"?><!DOCTYPE svg PUBLIC "-//W3C//DTD SVG 1.1//EN" "http://www.w3.org/Graphics/SVG/1.1/DTD/svg11.dtd"><svg t="1692169324886" class="icon" viewBox="0 0 1024 1024" version="1.1" xmlns="http://www.w3.org/2000/svg" p-id="27183" xmlns:xlink="http://www.w3.org/1999/xlink" width="128" height="128"><path d="M542.784 390.741333L784.149333 149.397333l90.496 90.496L633.301333 481.28z" fill="#B0BEC5" p-id="27184"></path><path d="M784.213333 149.333333m-85.333333 0a85.333333 85.333333 0 1 0 170.666667 0 85.333333 85.333333 0 1 0-170.666667 0Z" fill="#B0BEC5" p-id="27185"></path><path d="M874.666667 239.786667m-85.333334 0a85.333333 85.333333 0 1 0 170.666667 0 85.333333 85.333333 0 1 0-170.666667 0Z" fill="#B0BEC5" p-id="27186"></path><path d="M608.64 356.693333a97.92 97.92 0 0 0-106.666667-21.333333c-152.32 64-313.813333 138.453333-362.666666 187.306667a256 256 0 0 0 362.666666 362.666666c48.853333-49.066667 123.733333-210.56 187.306667-362.666666a97.92 97.92 0 0 0-21.333333-106.666667z" fill="#EF6C00" p-id="27187"></path><path d="M362.666667 725.333333m-21.333334 0a21.333333 21.333333 0 1 0 42.666667 0 21.333333 21.333333 0 1 0-42.666667 0Z" fill="#BF360C" p-id="27188"></path><path d="M426.666667 789.333333m-21.333334 0a21.333333 21.333333 0 1 0 42.666667 0 21.333333 21.333333 0 1 0-42.666667 0Z" fill="#BF360C" p-id="27189"></path><path d="M448 682.666667m-21.333333 0a21.333333 21.333333 0 1 0 42.666666 0 21.333333 21.333333 0 1 0-42.666666 0Z" fill="#BF360C" p-id="27190"></path></svg>